<mxfile host="Electron" agent="Mozilla/5.0 (Windows NT 10.0; Win64; x64) AppleWebKit/537.36 (KHTML, like Gecko) draw.io/24.7.5 Chrome/126.0.6478.183 Electron/31.3.0 Safari/537.36" version="24.7.5" pages="2">
  <diagram name="Use Case" id="Z4my6rKFRtbFITWfHtku">
    <mxGraphModel dx="840" dy="497" grid="1" gridSize="10" guides="1" tooltips="1" connect="1" arrows="1" fold="1" page="1" pageScale="1" pageWidth="827" pageHeight="1169" math="0" shadow="0">
      <root>
        <mxCell id="0" />
        <mxCell id="1" parent="0" />
        <mxCell id="i-IRlz0IcXE_nXzK61zn-1" value="Vertical Container" style="swimlane;whiteSpace=wrap;html=1;" parent="1" vertex="1">
          <mxGeometry x="240" y="80" width="480" height="960" as="geometry" />
        </mxCell>
        <mxCell id="i-IRlz0IcXE_nXzK61zn-6" value="Edit user infos" style="ellipse;whiteSpace=wrap;html=1;" parent="i-IRlz0IcXE_nXzK61zn-1" vertex="1">
          <mxGeometry x="80" y="567" width="100" height="40" as="geometry" />
        </mxCell>
        <mxCell id="i-IRlz0IcXE_nXzK61zn-5" value="Add user" style="ellipse;whiteSpace=wrap;html=1;" parent="i-IRlz0IcXE_nXzK61zn-1" vertex="1">
          <mxGeometry x="80" y="517" width="90" height="40" as="geometry" />
        </mxCell>
        <mxCell id="i-IRlz0IcXE_nXzK61zn-2" value="Add event" style="ellipse;whiteSpace=wrap;html=1;" parent="i-IRlz0IcXE_nXzK61zn-1" vertex="1">
          <mxGeometry x="80" y="318" width="90" height="40" as="geometry" />
        </mxCell>
        <mxCell id="i-IRlz0IcXE_nXzK61zn-3" value="Edit event infos" style="ellipse;whiteSpace=wrap;html=1;" parent="i-IRlz0IcXE_nXzK61zn-1" vertex="1">
          <mxGeometry x="80" y="368" width="110" height="40" as="geometry" />
        </mxCell>
        <mxCell id="i-IRlz0IcXE_nXzK61zn-7" value="Delete user" style="ellipse;whiteSpace=wrap;html=1;" parent="i-IRlz0IcXE_nXzK61zn-1" vertex="1">
          <mxGeometry x="80" y="616" width="90" height="40" as="geometry" />
        </mxCell>
        <mxCell id="i-IRlz0IcXE_nXzK61zn-8" value="Generate a report" style="ellipse;whiteSpace=wrap;html=1;" parent="i-IRlz0IcXE_nXzK61zn-1" vertex="1">
          <mxGeometry x="80" y="666" width="120" height="40" as="geometry" />
        </mxCell>
        <mxCell id="i-IRlz0IcXE_nXzK61zn-9" value="View events" style="ellipse;whiteSpace=wrap;html=1;" parent="i-IRlz0IcXE_nXzK61zn-1" vertex="1">
          <mxGeometry x="80" y="218" width="100" height="40" as="geometry" />
        </mxCell>
        <mxCell id="egsKetUkYShymG6PQGZg-2" value="" style="rounded=0;orthogonalLoop=1;jettySize=auto;html=1;startArrow=block;startFill=0;endArrow=none;endFill=0;exitX=1;exitY=0;exitDx=0;exitDy=0;" parent="i-IRlz0IcXE_nXzK61zn-1" source="i-IRlz0IcXE_nXzK61zn-12" target="egsKetUkYShymG6PQGZg-1" edge="1">
          <mxGeometry relative="1" as="geometry" />
        </mxCell>
        <mxCell id="i-IRlz0IcXE_nXzK61zn-12" value="Search for events&amp;nbsp;" style="ellipse;whiteSpace=wrap;html=1;" parent="i-IRlz0IcXE_nXzK61zn-1" vertex="1">
          <mxGeometry x="80" y="268" width="120" height="40" as="geometry" />
        </mxCell>
        <mxCell id="i-IRlz0IcXE_nXzK61zn-13" value="Register to an event" style="ellipse;whiteSpace=wrap;html=1;" parent="i-IRlz0IcXE_nXzK61zn-1" vertex="1">
          <mxGeometry x="80" y="60" width="130" height="40" as="geometry" />
        </mxCell>
        <mxCell id="i-IRlz0IcXE_nXzK61zn-14" value="View user&#39;s own registerations" style="ellipse;whiteSpace=wrap;html=1;" parent="i-IRlz0IcXE_nXzK61zn-1" vertex="1">
          <mxGeometry x="80" y="158" width="150" height="50" as="geometry" />
        </mxCell>
        <mxCell id="i-IRlz0IcXE_nXzK61zn-16" value="Add event participant" style="ellipse;whiteSpace=wrap;html=1;" parent="i-IRlz0IcXE_nXzK61zn-1" vertex="1">
          <mxGeometry x="80" y="716" width="130" height="40" as="geometry" />
        </mxCell>
        <mxCell id="i-IRlz0IcXE_nXzK61zn-17" value="Edit event participant infos" style="ellipse;whiteSpace=wrap;html=1;" parent="i-IRlz0IcXE_nXzK61zn-1" vertex="1">
          <mxGeometry x="80" y="766" width="130" height="60" as="geometry" />
        </mxCell>
        <mxCell id="i-IRlz0IcXE_nXzK61zn-18" value="Delete event participant" style="ellipse;whiteSpace=wrap;html=1;" parent="i-IRlz0IcXE_nXzK61zn-1" vertex="1">
          <mxGeometry x="80" y="837" width="120" height="40" as="geometry" />
        </mxCell>
        <mxCell id="i-IRlz0IcXE_nXzK61zn-36" value="View events which a participant is registered to" style="ellipse;whiteSpace=wrap;html=1;" parent="i-IRlz0IcXE_nXzK61zn-1" vertex="1">
          <mxGeometry x="80" y="890" width="180" height="60" as="geometry" />
        </mxCell>
        <mxCell id="r7o-0eFES539iKnrsoc5-1" value="Unsubscribe&amp;nbsp;from an event" style="ellipse;whiteSpace=wrap;html=1;" parent="i-IRlz0IcXE_nXzK61zn-1" vertex="1">
          <mxGeometry x="80" y="108" width="160" height="40" as="geometry" />
        </mxCell>
        <mxCell id="egsKetUkYShymG6PQGZg-1" value="By date" style="ellipse;whiteSpace=wrap;html=1;" parent="i-IRlz0IcXE_nXzK61zn-1" vertex="1">
          <mxGeometry x="300" y="218" width="120" height="40" as="geometry" />
        </mxCell>
        <mxCell id="egsKetUkYShymG6PQGZg-5" style="rounded=0;orthogonalLoop=1;jettySize=auto;html=1;exitX=0;exitY=0.5;exitDx=0;exitDy=0;entryX=1;entryY=0.5;entryDx=0;entryDy=0;startArrow=none;startFill=0;endArrow=block;endFill=0;" parent="i-IRlz0IcXE_nXzK61zn-1" source="egsKetUkYShymG6PQGZg-4" target="i-IRlz0IcXE_nXzK61zn-12" edge="1">
          <mxGeometry relative="1" as="geometry" />
        </mxCell>
        <mxCell id="egsKetUkYShymG6PQGZg-4" value="By location" style="ellipse;whiteSpace=wrap;html=1;" parent="i-IRlz0IcXE_nXzK61zn-1" vertex="1">
          <mxGeometry x="300" y="268" width="120" height="40" as="geometry" />
        </mxCell>
        <mxCell id="egsKetUkYShymG6PQGZg-7" style="rounded=0;orthogonalLoop=1;jettySize=auto;html=1;exitX=0;exitY=0.5;exitDx=0;exitDy=0;endArrow=block;endFill=0;" parent="i-IRlz0IcXE_nXzK61zn-1" source="egsKetUkYShymG6PQGZg-6" target="i-IRlz0IcXE_nXzK61zn-12" edge="1">
          <mxGeometry relative="1" as="geometry" />
        </mxCell>
        <mxCell id="egsKetUkYShymG6PQGZg-6" value="By event type" style="ellipse;whiteSpace=wrap;html=1;" parent="i-IRlz0IcXE_nXzK61zn-1" vertex="1">
          <mxGeometry x="300" y="318" width="120" height="40" as="geometry" />
        </mxCell>
        <mxCell id="i-IRlz0IcXE_nXzK61zn-4" value="Delete event" style="ellipse;whiteSpace=wrap;html=1;" parent="1" vertex="1">
          <mxGeometry x="320" y="497" width="90" height="40" as="geometry" />
        </mxCell>
        <mxCell id="i-IRlz0IcXE_nXzK61zn-32" style="rounded=0;orthogonalLoop=1;jettySize=auto;html=1;exitX=0.5;exitY=0.5;exitDx=0;exitDy=0;exitPerimeter=0;entryX=0;entryY=0.5;entryDx=0;entryDy=0;endArrow=none;endFill=0;" parent="1" source="i-IRlz0IcXE_nXzK61zn-19" target="i-IRlz0IcXE_nXzK61zn-9" edge="1">
          <mxGeometry relative="1" as="geometry" />
        </mxCell>
        <mxCell id="i-IRlz0IcXE_nXzK61zn-33" style="rounded=0;orthogonalLoop=1;jettySize=auto;html=1;exitX=0.5;exitY=0.5;exitDx=0;exitDy=0;exitPerimeter=0;entryX=0;entryY=0.5;entryDx=0;entryDy=0;endArrow=none;endFill=0;" parent="1" source="i-IRlz0IcXE_nXzK61zn-19" target="i-IRlz0IcXE_nXzK61zn-12" edge="1">
          <mxGeometry relative="1" as="geometry" />
        </mxCell>
        <mxCell id="i-IRlz0IcXE_nXzK61zn-34" style="rounded=0;orthogonalLoop=1;jettySize=auto;html=1;exitX=0.5;exitY=0.5;exitDx=0;exitDy=0;exitPerimeter=0;entryX=0;entryY=0.5;entryDx=0;entryDy=0;endArrow=none;endFill=0;" parent="1" source="i-IRlz0IcXE_nXzK61zn-19" target="i-IRlz0IcXE_nXzK61zn-13" edge="1">
          <mxGeometry relative="1" as="geometry" />
        </mxCell>
        <mxCell id="i-IRlz0IcXE_nXzK61zn-35" style="rounded=0;orthogonalLoop=1;jettySize=auto;html=1;exitX=0.5;exitY=0.5;exitDx=0;exitDy=0;exitPerimeter=0;entryX=0;entryY=0.5;entryDx=0;entryDy=0;endArrow=none;endFill=0;" parent="1" source="i-IRlz0IcXE_nXzK61zn-19" target="i-IRlz0IcXE_nXzK61zn-14" edge="1">
          <mxGeometry relative="1" as="geometry" />
        </mxCell>
        <mxCell id="r7o-0eFES539iKnrsoc5-2" style="rounded=0;orthogonalLoop=1;jettySize=auto;html=1;exitX=0.5;exitY=0.5;exitDx=0;exitDy=0;exitPerimeter=0;entryX=0;entryY=0.5;entryDx=0;entryDy=0;endArrow=none;endFill=0;" parent="1" source="i-IRlz0IcXE_nXzK61zn-19" target="r7o-0eFES539iKnrsoc5-1" edge="1">
          <mxGeometry relative="1" as="geometry" />
        </mxCell>
        <mxCell id="i-IRlz0IcXE_nXzK61zn-19" value="User" style="shape=umlActor;verticalLabelPosition=bottom;verticalAlign=top;html=1;" parent="1" vertex="1">
          <mxGeometry x="80" y="190" width="30" height="60" as="geometry" />
        </mxCell>
        <mxCell id="i-IRlz0IcXE_nXzK61zn-22" style="rounded=0;orthogonalLoop=1;jettySize=auto;html=1;exitX=0.5;exitY=0.5;exitDx=0;exitDy=0;exitPerimeter=0;entryX=0;entryY=0.5;entryDx=0;entryDy=0;strokeColor=default;endArrow=none;endFill=0;" parent="1" source="i-IRlz0IcXE_nXzK61zn-20" target="i-IRlz0IcXE_nXzK61zn-3" edge="1">
          <mxGeometry relative="1" as="geometry" />
        </mxCell>
        <mxCell id="i-IRlz0IcXE_nXzK61zn-23" style="rounded=0;orthogonalLoop=1;jettySize=auto;html=1;exitX=0.5;exitY=0.5;exitDx=0;exitDy=0;exitPerimeter=0;entryX=0;entryY=0.5;entryDx=0;entryDy=0;strokeColor=default;endArrow=none;endFill=0;" parent="1" source="i-IRlz0IcXE_nXzK61zn-20" target="i-IRlz0IcXE_nXzK61zn-4" edge="1">
          <mxGeometry relative="1" as="geometry" />
        </mxCell>
        <mxCell id="i-IRlz0IcXE_nXzK61zn-24" style="rounded=0;orthogonalLoop=1;jettySize=auto;html=1;exitX=0.5;exitY=0.5;exitDx=0;exitDy=0;exitPerimeter=0;entryX=0;entryY=0.5;entryDx=0;entryDy=0;strokeColor=default;endArrow=none;endFill=0;" parent="1" source="i-IRlz0IcXE_nXzK61zn-20" target="i-IRlz0IcXE_nXzK61zn-5" edge="1">
          <mxGeometry relative="1" as="geometry" />
        </mxCell>
        <mxCell id="i-IRlz0IcXE_nXzK61zn-25" style="rounded=0;orthogonalLoop=1;jettySize=auto;html=1;exitX=0.5;exitY=0.5;exitDx=0;exitDy=0;exitPerimeter=0;entryX=0;entryY=0.5;entryDx=0;entryDy=0;strokeColor=default;endArrow=none;endFill=0;" parent="1" source="i-IRlz0IcXE_nXzK61zn-20" target="i-IRlz0IcXE_nXzK61zn-6" edge="1">
          <mxGeometry relative="1" as="geometry" />
        </mxCell>
        <mxCell id="i-IRlz0IcXE_nXzK61zn-26" style="rounded=0;orthogonalLoop=1;jettySize=auto;html=1;exitX=0.5;exitY=0.5;exitDx=0;exitDy=0;exitPerimeter=0;entryX=0;entryY=0.5;entryDx=0;entryDy=0;strokeColor=default;endArrow=none;endFill=0;" parent="1" source="i-IRlz0IcXE_nXzK61zn-20" target="i-IRlz0IcXE_nXzK61zn-7" edge="1">
          <mxGeometry relative="1" as="geometry" />
        </mxCell>
        <mxCell id="i-IRlz0IcXE_nXzK61zn-27" style="rounded=0;orthogonalLoop=1;jettySize=auto;html=1;exitX=0.5;exitY=0.5;exitDx=0;exitDy=0;exitPerimeter=0;entryX=0;entryY=0.5;entryDx=0;entryDy=0;strokeColor=default;endArrow=none;endFill=0;" parent="1" source="i-IRlz0IcXE_nXzK61zn-20" target="i-IRlz0IcXE_nXzK61zn-8" edge="1">
          <mxGeometry relative="1" as="geometry" />
        </mxCell>
        <mxCell id="i-IRlz0IcXE_nXzK61zn-28" style="rounded=0;orthogonalLoop=1;jettySize=auto;html=1;exitX=0.5;exitY=0.5;exitDx=0;exitDy=0;exitPerimeter=0;entryX=0;entryY=0.5;entryDx=0;entryDy=0;strokeColor=default;endArrow=none;endFill=0;" parent="1" source="i-IRlz0IcXE_nXzK61zn-20" target="i-IRlz0IcXE_nXzK61zn-16" edge="1">
          <mxGeometry relative="1" as="geometry" />
        </mxCell>
        <mxCell id="i-IRlz0IcXE_nXzK61zn-29" style="rounded=0;orthogonalLoop=1;jettySize=auto;html=1;exitX=0.5;exitY=0.5;exitDx=0;exitDy=0;exitPerimeter=0;entryX=0;entryY=0.5;entryDx=0;entryDy=0;strokeColor=default;endArrow=none;endFill=0;" parent="1" source="i-IRlz0IcXE_nXzK61zn-20" target="i-IRlz0IcXE_nXzK61zn-17" edge="1">
          <mxGeometry relative="1" as="geometry" />
        </mxCell>
        <mxCell id="i-IRlz0IcXE_nXzK61zn-30" style="rounded=0;orthogonalLoop=1;jettySize=auto;html=1;exitX=0.5;exitY=0.5;exitDx=0;exitDy=0;exitPerimeter=0;entryX=0;entryY=0.5;entryDx=0;entryDy=0;strokeColor=default;endArrow=none;endFill=0;" parent="1" source="i-IRlz0IcXE_nXzK61zn-20" target="i-IRlz0IcXE_nXzK61zn-18" edge="1">
          <mxGeometry relative="1" as="geometry" />
        </mxCell>
        <mxCell id="i-IRlz0IcXE_nXzK61zn-37" style="rounded=0;orthogonalLoop=1;jettySize=auto;html=1;exitX=0.5;exitY=0.5;exitDx=0;exitDy=0;exitPerimeter=0;entryX=0;entryY=0.5;entryDx=0;entryDy=0;endArrow=none;endFill=0;" parent="1" target="i-IRlz0IcXE_nXzK61zn-36" edge="1">
          <mxGeometry relative="1" as="geometry">
            <mxPoint x="95" y="640" as="sourcePoint" />
            <mxPoint x="320" y="980" as="targetPoint" />
          </mxGeometry>
        </mxCell>
        <mxCell id="r7o-0eFES539iKnrsoc5-3" style="rounded=0;orthogonalLoop=1;jettySize=auto;html=1;exitX=0.5;exitY=0.5;exitDx=0;exitDy=0;exitPerimeter=0;entryX=0;entryY=0.5;entryDx=0;entryDy=0;endArrow=none;endFill=0;" parent="1" source="i-IRlz0IcXE_nXzK61zn-20" target="i-IRlz0IcXE_nXzK61zn-12" edge="1">
          <mxGeometry relative="1" as="geometry" />
        </mxCell>
        <mxCell id="r7o-0eFES539iKnrsoc5-4" style="rounded=0;orthogonalLoop=1;jettySize=auto;html=1;exitX=0.5;exitY=0.5;exitDx=0;exitDy=0;exitPerimeter=0;entryX=0;entryY=0.5;entryDx=0;entryDy=0;endArrow=none;endFill=0;" parent="1" source="i-IRlz0IcXE_nXzK61zn-20" target="i-IRlz0IcXE_nXzK61zn-9" edge="1">
          <mxGeometry relative="1" as="geometry" />
        </mxCell>
        <mxCell id="r7o-0eFES539iKnrsoc5-6" style="rounded=0;orthogonalLoop=1;jettySize=auto;html=1;exitX=0.5;exitY=0.5;exitDx=0;exitDy=0;exitPerimeter=0;entryX=0;entryY=0.5;entryDx=0;entryDy=0;endArrow=none;endFill=0;" parent="1" source="i-IRlz0IcXE_nXzK61zn-20" target="r7o-0eFES539iKnrsoc5-5" edge="1">
          <mxGeometry relative="1" as="geometry" />
        </mxCell>
        <mxCell id="i-IRlz0IcXE_nXzK61zn-20" value="Admin" style="shape=umlActor;verticalLabelPosition=bottom;verticalAlign=top;html=1;" parent="1" vertex="1">
          <mxGeometry x="80" y="610" width="30" height="60" as="geometry" />
        </mxCell>
        <mxCell id="i-IRlz0IcXE_nXzK61zn-31" style="rounded=0;orthogonalLoop=1;jettySize=auto;html=1;exitX=0.5;exitY=0.5;exitDx=0;exitDy=0;exitPerimeter=0;entryX=0;entryY=0.75;entryDx=0;entryDy=0;entryPerimeter=0;endArrow=none;endFill=0;" parent="1" source="i-IRlz0IcXE_nXzK61zn-20" target="i-IRlz0IcXE_nXzK61zn-2" edge="1">
          <mxGeometry relative="1" as="geometry" />
        </mxCell>
        <mxCell id="r7o-0eFES539iKnrsoc5-5" value="View event paticipants list" style="ellipse;whiteSpace=wrap;html=1;" parent="1" vertex="1">
          <mxGeometry x="320" y="547" width="160" height="40" as="geometry" />
        </mxCell>
      </root>
    </mxGraphModel>
  </diagram>
  <diagram id="PrHgA1jx0MzFiQ8bvlvs" name="class">
    <mxGraphModel dx="1167" dy="690" grid="1" gridSize="10" guides="1" tooltips="1" connect="1" arrows="1" fold="1" page="1" pageScale="1" pageWidth="827" pageHeight="1169" math="0" shadow="0">
      <root>
        <mxCell id="0" />
        <mxCell id="1" parent="0" />
        <mxCell id="Nr0BdA1C_nfvnodoleXO-17" value="" style="rounded=0;orthogonalLoop=1;jettySize=auto;html=1;endArrow=none;endFill=0;" parent="1" source="8DZPiCHMUJsx89QLqprW-1" target="Nr0BdA1C_nfvnodoleXO-13" edge="1">
          <mxGeometry relative="1" as="geometry" />
        </mxCell>
        <mxCell id="8DZPiCHMUJsx89QLqprW-1" value="Users" style="swimlane;fontStyle=1;align=center;verticalAlign=top;childLayout=stackLayout;horizontal=1;startSize=26;horizontalStack=0;resizeParent=1;resizeParentMax=0;resizeLast=0;collapsible=1;marginBottom=0;whiteSpace=wrap;html=1;" parent="1" vertex="1">
          <mxGeometry x="560" y="540" width="160" height="268" as="geometry" />
        </mxCell>
        <mxCell id="8DZPiCHMUJsx89QLqprW-2" value="-id: int;" style="text;strokeColor=none;fillColor=none;align=left;verticalAlign=top;spacingLeft=4;spacingRight=4;overflow=hidden;rotatable=0;points=[[0,0.5],[1,0.5]];portConstraint=eastwest;whiteSpace=wrap;html=1;" parent="8DZPiCHMUJsx89QLqprW-1" vertex="1">
          <mxGeometry y="26" width="160" height="26" as="geometry" />
        </mxCell>
        <mxCell id="oZU4zev83-q7bImpAcUd-4" value="-first_name: string;" style="text;strokeColor=none;fillColor=none;align=left;verticalAlign=top;spacingLeft=4;spacingRight=4;overflow=hidden;rotatable=0;points=[[0,0.5],[1,0.5]];portConstraint=eastwest;whiteSpace=wrap;html=1;" parent="8DZPiCHMUJsx89QLqprW-1" vertex="1">
          <mxGeometry y="52" width="160" height="26" as="geometry" />
        </mxCell>
        <mxCell id="oZU4zev83-q7bImpAcUd-1" value="-last_name: string;" style="text;strokeColor=none;fillColor=none;align=left;verticalAlign=top;spacingLeft=4;spacingRight=4;overflow=hidden;rotatable=0;points=[[0,0.5],[1,0.5]];portConstraint=eastwest;whiteSpace=wrap;html=1;" parent="8DZPiCHMUJsx89QLqprW-1" vertex="1">
          <mxGeometry y="78" width="160" height="26" as="geometry" />
        </mxCell>
        <mxCell id="oZU4zev83-q7bImpAcUd-2" value="-role: Role;" style="text;strokeColor=none;fillColor=none;align=left;verticalAlign=top;spacingLeft=4;spacingRight=4;overflow=hidden;rotatable=0;points=[[0,0.5],[1,0.5]];portConstraint=eastwest;whiteSpace=wrap;html=1;" parent="8DZPiCHMUJsx89QLqprW-1" vertex="1">
          <mxGeometry y="104" width="160" height="26" as="geometry" />
        </mxCell>
        <mxCell id="PcDarQnHraTvxz1ByBY4-1" value="-email:string;" style="text;strokeColor=none;fillColor=none;align=left;verticalAlign=top;spacingLeft=4;spacingRight=4;overflow=hidden;rotatable=0;points=[[0,0.5],[1,0.5]];portConstraint=eastwest;whiteSpace=wrap;html=1;" vertex="1" parent="8DZPiCHMUJsx89QLqprW-1">
          <mxGeometry y="130" width="160" height="26" as="geometry" />
        </mxCell>
        <mxCell id="oZU4zev83-q7bImpAcUd-3" value="-password: string;" style="text;strokeColor=none;fillColor=none;align=left;verticalAlign=top;spacingLeft=4;spacingRight=4;overflow=hidden;rotatable=0;points=[[0,0.5],[1,0.5]];portConstraint=eastwest;whiteSpace=wrap;html=1;" parent="8DZPiCHMUJsx89QLqprW-1" vertex="1">
          <mxGeometry y="156" width="160" height="26" as="geometry" />
        </mxCell>
        <mxCell id="8DZPiCHMUJsx89QLqprW-3" value="" style="line;strokeWidth=1;fillColor=none;align=left;verticalAlign=middle;spacingTop=-1;spacingLeft=3;spacingRight=3;rotatable=0;labelPosition=right;points=[];portConstraint=eastwest;strokeColor=inherit;" parent="8DZPiCHMUJsx89QLqprW-1" vertex="1">
          <mxGeometry y="182" width="160" height="8" as="geometry" />
        </mxCell>
        <mxCell id="8DZPiCHMUJsx89QLqprW-4" value="+ addUser(array):void;" style="text;strokeColor=none;fillColor=none;align=left;verticalAlign=top;spacingLeft=4;spacingRight=4;overflow=hidden;rotatable=0;points=[[0,0.5],[1,0.5]];portConstraint=eastwest;whiteSpace=wrap;html=1;" parent="8DZPiCHMUJsx89QLqprW-1" vertex="1">
          <mxGeometry y="190" width="160" height="26" as="geometry" />
        </mxCell>
        <mxCell id="oZU4zev83-q7bImpAcUd-5" value="+ editUser(User):void;" style="text;strokeColor=none;fillColor=none;align=left;verticalAlign=top;spacingLeft=4;spacingRight=4;overflow=hidden;rotatable=0;points=[[0,0.5],[1,0.5]];portConstraint=eastwest;whiteSpace=wrap;html=1;" parent="8DZPiCHMUJsx89QLqprW-1" vertex="1">
          <mxGeometry y="216" width="160" height="26" as="geometry" />
        </mxCell>
        <mxCell id="oZU4zev83-q7bImpAcUd-6" value="+ deleteUser(User):void;" style="text;strokeColor=none;fillColor=none;align=left;verticalAlign=top;spacingLeft=4;spacingRight=4;overflow=hidden;rotatable=0;points=[[0,0.5],[1,0.5]];portConstraint=eastwest;whiteSpace=wrap;html=1;" parent="8DZPiCHMUJsx89QLqprW-1" vertex="1">
          <mxGeometry y="242" width="160" height="26" as="geometry" />
        </mxCell>
        <mxCell id="Nr0BdA1C_nfvnodoleXO-22" value="" style="rounded=0;orthogonalLoop=1;jettySize=auto;html=1;endArrow=none;endFill=0;" parent="1" source="Nr0BdA1C_nfvnodoleXO-13" target="Nr0BdA1C_nfvnodoleXO-18" edge="1">
          <mxGeometry relative="1" as="geometry" />
        </mxCell>
        <mxCell id="Nr0BdA1C_nfvnodoleXO-13" value="&lt;span style=&quot;font-weight: 400; text-align: left;&quot;&gt;Registrations&lt;/span&gt;" style="swimlane;fontStyle=1;align=center;verticalAlign=top;childLayout=stackLayout;horizontal=1;startSize=26;horizontalStack=0;resizeParent=1;resizeParentMax=0;resizeLast=0;collapsible=1;marginBottom=0;whiteSpace=wrap;html=1;" parent="1" vertex="1">
          <mxGeometry x="520" y="306" width="240" height="138" as="geometry" />
        </mxCell>
        <mxCell id="Nr0BdA1C_nfvnodoleXO-14" value="-id: int;" style="text;strokeColor=none;fillColor=none;align=left;verticalAlign=top;spacingLeft=4;spacingRight=4;overflow=hidden;rotatable=0;points=[[0,0.5],[1,0.5]];portConstraint=eastwest;whiteSpace=wrap;html=1;" parent="Nr0BdA1C_nfvnodoleXO-13" vertex="1">
          <mxGeometry y="26" width="240" height="26" as="geometry" />
        </mxCell>
        <mxCell id="oZU4zev83-q7bImpAcUd-7" value="-date: date;" style="text;strokeColor=none;fillColor=none;align=left;verticalAlign=top;spacingLeft=4;spacingRight=4;overflow=hidden;rotatable=0;points=[[0,0.5],[1,0.5]];portConstraint=eastwest;whiteSpace=wrap;html=1;" parent="Nr0BdA1C_nfvnodoleXO-13" vertex="1">
          <mxGeometry y="52" width="240" height="26" as="geometry" />
        </mxCell>
        <mxCell id="Nr0BdA1C_nfvnodoleXO-15" value="" style="line;strokeWidth=1;fillColor=none;align=left;verticalAlign=middle;spacingTop=-1;spacingLeft=3;spacingRight=3;rotatable=0;labelPosition=right;points=[];portConstraint=eastwest;strokeColor=inherit;" parent="Nr0BdA1C_nfvnodoleXO-13" vertex="1">
          <mxGeometry y="78" width="240" height="8" as="geometry" />
        </mxCell>
        <mxCell id="Nr0BdA1C_nfvnodoleXO-16" value="+addRegistration(User, Event):void;" style="text;strokeColor=none;fillColor=none;align=left;verticalAlign=top;spacingLeft=4;spacingRight=4;overflow=hidden;rotatable=0;points=[[0,0.5],[1,0.5]];portConstraint=eastwest;whiteSpace=wrap;html=1;" parent="Nr0BdA1C_nfvnodoleXO-13" vertex="1">
          <mxGeometry y="86" width="240" height="26" as="geometry" />
        </mxCell>
        <mxCell id="oZU4zev83-q7bImpAcUd-8" value="+deleteRegistration(Registrations):void;" style="text;strokeColor=none;fillColor=none;align=left;verticalAlign=top;spacingLeft=4;spacingRight=4;overflow=hidden;rotatable=0;points=[[0,0.5],[1,0.5]];portConstraint=eastwest;whiteSpace=wrap;html=1;" parent="Nr0BdA1C_nfvnodoleXO-13" vertex="1">
          <mxGeometry y="112" width="240" height="26" as="geometry" />
        </mxCell>
        <mxCell id="Nr0BdA1C_nfvnodoleXO-18" value="Events" style="swimlane;fontStyle=1;align=center;verticalAlign=top;childLayout=stackLayout;horizontal=1;startSize=26;horizontalStack=0;resizeParent=1;resizeParentMax=0;resizeLast=0;collapsible=1;marginBottom=0;whiteSpace=wrap;html=1;" parent="1" vertex="1">
          <mxGeometry x="120" y="280" width="160" height="190" as="geometry" />
        </mxCell>
        <mxCell id="Nr0BdA1C_nfvnodoleXO-19" value="-id: int;" style="text;strokeColor=none;fillColor=none;align=left;verticalAlign=top;spacingLeft=4;spacingRight=4;overflow=hidden;rotatable=0;points=[[0,0.5],[1,0.5]];portConstraint=eastwest;whiteSpace=wrap;html=1;" parent="Nr0BdA1C_nfvnodoleXO-18" vertex="1">
          <mxGeometry y="26" width="160" height="26" as="geometry" />
        </mxCell>
        <mxCell id="oZU4zev83-q7bImpAcUd-9" value="&lt;span class=&quot;hljs-operator&quot;&gt;-&lt;/span&gt; title: String;" style="text;strokeColor=none;fillColor=none;align=left;verticalAlign=top;spacingLeft=4;spacingRight=4;overflow=hidden;rotatable=0;points=[[0,0.5],[1,0.5]];portConstraint=eastwest;whiteSpace=wrap;html=1;" parent="Nr0BdA1C_nfvnodoleXO-18" vertex="1">
          <mxGeometry y="52" width="160" height="26" as="geometry" />
        </mxCell>
        <mxCell id="oZU4zev83-q7bImpAcUd-10" value="&lt;span class=&quot;hljs-operator&quot;&gt;-&lt;/span&gt; &lt;span class=&quot;hljs-type&quot;&gt;date&lt;/span&gt;: Date;" style="text;strokeColor=none;fillColor=none;align=left;verticalAlign=top;spacingLeft=4;spacingRight=4;overflow=hidden;rotatable=0;points=[[0,0.5],[1,0.5]];portConstraint=eastwest;whiteSpace=wrap;html=1;" parent="Nr0BdA1C_nfvnodoleXO-18" vertex="1">
          <mxGeometry y="78" width="160" height="26" as="geometry" />
        </mxCell>
        <mxCell id="oZU4zev83-q7bImpAcUd-11" value="&lt;span class=&quot;hljs-operator&quot;&gt;-&lt;/span&gt; location: String;" style="text;strokeColor=none;fillColor=none;align=left;verticalAlign=top;spacingLeft=4;spacingRight=4;overflow=hidden;rotatable=0;points=[[0,0.5],[1,0.5]];portConstraint=eastwest;whiteSpace=wrap;html=1;" parent="Nr0BdA1C_nfvnodoleXO-18" vertex="1">
          <mxGeometry y="104" width="160" height="26" as="geometry" />
        </mxCell>
        <mxCell id="oZU4zev83-q7bImpAcUd-12" value="&lt;span class=&quot;hljs-operator&quot;&gt;-&lt;/span&gt; type: EventType;&amp;nbsp;" style="text;strokeColor=none;fillColor=none;align=left;verticalAlign=top;spacingLeft=4;spacingRight=4;overflow=hidden;rotatable=0;points=[[0,0.5],[1,0.5]];portConstraint=eastwest;whiteSpace=wrap;html=1;" parent="Nr0BdA1C_nfvnodoleXO-18" vertex="1">
          <mxGeometry y="130" width="160" height="26" as="geometry" />
        </mxCell>
        <mxCell id="Nr0BdA1C_nfvnodoleXO-20" value="" style="line;strokeWidth=1;fillColor=none;align=left;verticalAlign=middle;spacingTop=-1;spacingLeft=3;spacingRight=3;rotatable=0;labelPosition=right;points=[];portConstraint=eastwest;strokeColor=inherit;" parent="Nr0BdA1C_nfvnodoleXO-18" vertex="1">
          <mxGeometry y="156" width="160" height="8" as="geometry" />
        </mxCell>
        <mxCell id="Nr0BdA1C_nfvnodoleXO-21" value="+ method(type): type" style="text;strokeColor=none;fillColor=none;align=left;verticalAlign=top;spacingLeft=4;spacingRight=4;overflow=hidden;rotatable=0;points=[[0,0.5],[1,0.5]];portConstraint=eastwest;whiteSpace=wrap;html=1;" parent="Nr0BdA1C_nfvnodoleXO-18" vertex="1">
          <mxGeometry y="164" width="160" height="26" as="geometry" />
        </mxCell>
        <mxCell id="oZU4zev83-q7bImpAcUd-17" value="&amp;lt;&amp;lt;enumeration&amp;gt;&amp;gt;&lt;br&gt;&lt;b&gt;EventType&lt;/b&gt;" style="swimlane;fontStyle=0;align=center;verticalAlign=top;childLayout=stackLayout;horizontal=1;startSize=40;horizontalStack=0;resizeParent=1;resizeParentMax=0;resizeLast=0;collapsible=0;marginBottom=0;html=1;whiteSpace=wrap;" parent="1" vertex="1">
          <mxGeometry x="140" y="80" width="140" height="160" as="geometry" />
        </mxCell>
        <mxCell id="oZU4zev83-q7bImpAcUd-18" value="conferenc&lt;span style=&quot;background-color: initial;&quot;&gt;e&lt;/span&gt;" style="text;html=1;strokeColor=none;fillColor=none;align=left;verticalAlign=middle;spacingLeft=4;spacingRight=4;overflow=hidden;rotatable=0;points=[[0,0.5],[1,0.5]];portConstraint=eastwest;whiteSpace=wrap;" parent="oZU4zev83-q7bImpAcUd-17" vertex="1">
          <mxGeometry y="40" width="140" height="30" as="geometry" />
        </mxCell>
        <mxCell id="oZU4zev83-q7bImpAcUd-21" value="seminar" style="text;html=1;strokeColor=none;fillColor=none;align=left;verticalAlign=middle;spacingLeft=4;spacingRight=4;overflow=hidden;rotatable=0;points=[[0,0.5],[1,0.5]];portConstraint=eastwest;whiteSpace=wrap;" parent="oZU4zev83-q7bImpAcUd-17" vertex="1">
          <mxGeometry y="70" width="140" height="30" as="geometry" />
        </mxCell>
        <mxCell id="oZU4zev83-q7bImpAcUd-22" value="meeting" style="text;html=1;strokeColor=none;fillColor=none;align=left;verticalAlign=middle;spacingLeft=4;spacingRight=4;overflow=hidden;rotatable=0;points=[[0,0.5],[1,0.5]];portConstraint=eastwest;whiteSpace=wrap;" parent="oZU4zev83-q7bImpAcUd-17" vertex="1">
          <mxGeometry y="100" width="140" height="30" as="geometry" />
        </mxCell>
        <mxCell id="oZU4zev83-q7bImpAcUd-23" value="workshop" style="text;html=1;strokeColor=none;fillColor=none;align=left;verticalAlign=middle;spacingLeft=4;spacingRight=4;overflow=hidden;rotatable=0;points=[[0,0.5],[1,0.5]];portConstraint=eastwest;whiteSpace=wrap;" parent="oZU4zev83-q7bImpAcUd-17" vertex="1">
          <mxGeometry y="130" width="140" height="30" as="geometry" />
        </mxCell>
        <mxCell id="oZU4zev83-q7bImpAcUd-19" value="&amp;lt;&amp;lt;enumeration&amp;gt;&amp;gt;&lt;br&gt;&lt;b&gt;Role&lt;/b&gt;" style="swimlane;fontStyle=0;align=center;verticalAlign=top;childLayout=stackLayout;horizontal=1;startSize=40;horizontalStack=0;resizeParent=1;resizeParentMax=0;resizeLast=0;collapsible=0;marginBottom=0;html=1;whiteSpace=wrap;" parent="1" vertex="1">
          <mxGeometry x="550" y="130" width="140" height="100" as="geometry" />
        </mxCell>
        <mxCell id="oZU4zev83-q7bImpAcUd-20" value="user" style="text;html=1;strokeColor=none;fillColor=none;align=left;verticalAlign=middle;spacingLeft=4;spacingRight=4;overflow=hidden;rotatable=0;points=[[0,0.5],[1,0.5]];portConstraint=eastwest;whiteSpace=wrap;" parent="oZU4zev83-q7bImpAcUd-19" vertex="1">
          <mxGeometry y="40" width="140" height="30" as="geometry" />
        </mxCell>
        <mxCell id="oZU4zev83-q7bImpAcUd-24" value="admin" style="text;html=1;strokeColor=none;fillColor=none;align=left;verticalAlign=middle;spacingLeft=4;spacingRight=4;overflow=hidden;rotatable=0;points=[[0,0.5],[1,0.5]];portConstraint=eastwest;whiteSpace=wrap;" parent="oZU4zev83-q7bImpAcUd-19" vertex="1">
          <mxGeometry y="70" width="140" height="30" as="geometry" />
        </mxCell>
        <mxCell id="oZU4zev83-q7bImpAcUd-25" value="0..*" style="text;html=1;align=center;verticalAlign=middle;resizable=0;points=[];autosize=1;strokeColor=none;fillColor=none;" parent="1" vertex="1">
          <mxGeometry x="610" y="444" width="40" height="30" as="geometry" />
        </mxCell>
        <mxCell id="oZU4zev83-q7bImpAcUd-26" value="1" style="text;html=1;align=center;verticalAlign=middle;resizable=0;points=[];autosize=1;strokeColor=none;fillColor=none;" parent="1" vertex="1">
          <mxGeometry x="615" y="510" width="30" height="30" as="geometry" />
        </mxCell>
        <mxCell id="oZU4zev83-q7bImpAcUd-28" value="0..*" style="text;html=1;align=center;verticalAlign=middle;resizable=0;points=[];autosize=1;strokeColor=none;fillColor=none;" parent="1" vertex="1">
          <mxGeometry x="490" y="348" width="40" height="30" as="geometry" />
        </mxCell>
        <mxCell id="oZU4zev83-q7bImpAcUd-29" value="1" style="text;html=1;align=center;verticalAlign=middle;resizable=0;points=[];autosize=1;strokeColor=none;fillColor=none;" parent="1" vertex="1">
          <mxGeometry x="270" y="348" width="30" height="30" as="geometry" />
        </mxCell>
      </root>
    </mxGraphModel>
  </diagram>
</mxfile>
